<svg width="512" height="512" viewBox="0 0 512 512" fill="none" xmlns="http://www.w3.org/2000/svg">
<path d="M396.843 50L361.39 391.848L287.174 391.848L396.843 50Z" fill="#00CCFF"/>
<path d="M255.998 208.415L287.18 391.881L361.395 391.883L255.998 208.415Z" fill="#66E0FF"/>
<path d="M115.158 50L150.61 391.848L224.827 391.848L115.158 50Z" fill="#00CCFF"/>
<path d="M255.998 208.415L224.816 391.881L150.601 391.883L255.998 208.415Z" fill="#66E0FF"/>
<path d="M467.929 139.71L418.945 57.8157L402.737 57.8067L450.774 139.709L467.929 139.71Z" fill="#00CCFF"/>
<path d="M402.343 125.154L412.636 139.747H402.343V125.154Z" fill="#66E0FF"/>
<path d="M402.282 139.855L451.266 57.9603L467.474 57.9513L419.437 139.854L402.282 139.855Z" fill="#00CCFF"/>
<path d="M467.536 72.619L457.242 58.0259H467.536L467.536 72.619Z" fill="#00CCFF"/>
<path d="M426.808 98.8488L451.266 57.9629L467.474 57.9539L443.488 98.8488L426.808 98.8488Z" fill="#66E0FF"/>
</svg>
